<?xml version="1.0" encoding="UTF-8"?>
<svg id="Layer_11" xmlns="http://www.w3.org/2000/svg" version="1.1" viewBox="0 0 766.63 600.52">
  <!-- Generator: Adobe Illustrator 29.4.0, SVG Export Plug-In . SVG Version: 2.1.0 Build 152)  -->
  <defs>
    <style>
      .st0 {
        isolation: isolate;
      }
    </style>
  </defs>
  <g class="st0">
    <g class="st0">
      <path d="M263.64,153.25l-11.33-35.24h3.37l10.52,33.38h.6l10.52-33.38h3.37l-11.33,35.24h-5.74Z"/>
      <path d="M297.72,153.96c-2.48,0-4.66-.53-6.52-1.59-1.86-1.06-3.31-2.53-4.33-4.43-1.02-1.9-1.54-4.1-1.54-6.62v-.6c0-2.52.51-4.72,1.54-6.62,1.02-1.9,2.47-3.37,4.33-4.43,1.86-1.06,4.04-1.59,6.52-1.59s4.66.53,6.52,1.59c1.86,1.06,3.31,2.53,4.33,4.43,1.02,1.9,1.54,4.1,1.54,6.62v.6c0,2.52-.51,4.72-1.54,6.62-1.02,1.9-2.47,3.37-4.33,4.43-1.86,1.06-4.04,1.59-6.52,1.59ZM297.72,151.24c2.89,0,5.17-.91,6.85-2.74,1.68-1.83,2.52-4.25,2.52-7.27v-.4c0-3.02-.84-5.45-2.52-7.27-1.68-1.83-3.96-2.74-6.85-2.74s-5.13.91-6.82,2.74c-1.69,1.83-2.54,4.25-2.54,7.27v.4c0,3.02.85,5.45,2.54,7.27,1.69,1.83,3.97,2.74,6.82,2.74Z"/>
      <path d="M317.75,153.25v-35.24h3.02v35.24h-3.02Z"/>
      <path d="M339.04,153.75c-1.75,0-3.36-.37-4.86-1.11-1.49-.74-2.69-1.85-3.57-3.35-.89-1.49-1.33-3.36-1.33-5.61v-14.9h3.02v14.7c0,2.65.67,4.57,2.01,5.76s3.14,1.79,5.39,1.79c2.52,0,4.61-.83,6.29-2.49,1.68-1.66,2.52-4.17,2.52-7.53v-12.23h3.02v24.46h-2.92v-4.53h-.6c-.6,1.31-1.59,2.47-2.97,3.5-1.38,1.02-3.37,1.54-5.99,1.54Z"/>
      <path d="M360.39,153.25v-24.46h2.92v3.22h.6c.5-.91,1.31-1.75,2.42-2.54,1.11-.79,2.68-1.18,4.73-1.18s3.58.45,4.81,1.36c1.22.91,2.11,2,2.64,3.27h.6c.57-1.28,1.46-2.37,2.67-3.27,1.21-.91,2.9-1.36,5.08-1.36,1.68,0,3.14.34,4.38,1.03,1.24.69,2.21,1.64,2.92,2.87.71,1.23,1.06,2.66,1.06,4.3v16.76h-3.02v-16.46c0-1.75-.53-3.15-1.59-4.2s-2.54-1.58-4.46-1.58-3.57.63-4.88,1.89c-1.31,1.26-1.96,3.1-1.96,5.51v14.85h-3.02v-16.46c0-1.75-.53-3.15-1.59-4.2-1.06-1.06-2.54-1.58-4.46-1.58s-3.57.63-4.88,1.89c-1.31,1.26-1.96,3.1-1.96,5.51v14.85h-3.02Z"/>
      <path d="M415.06,153.96c-2.52,0-4.71-.53-6.57-1.59-1.86-1.06-3.31-2.54-4.35-4.46-1.04-1.91-1.56-4.11-1.56-6.59v-.6c0-2.52.52-4.72,1.56-6.62,1.04-1.9,2.47-3.37,4.3-4.43,1.83-1.06,3.92-1.59,6.27-1.59s4.3.48,6.07,1.43c1.76.96,3.15,2.33,4.15,4.13,1.01,1.8,1.51,3.94,1.51,6.42v1.61h-20.84c.1,3.05,1.03,5.41,2.79,7.07,1.76,1.66,3.98,2.49,6.67,2.49,2.28,0,4.05-.52,5.31-1.56,1.26-1.04,2.22-2.32,2.89-3.83l2.72,1.21c-.5,1.11-1.2,2.19-2.09,3.25-.89,1.06-2.04,1.93-3.45,2.62-1.41.69-3.21,1.03-5.39,1.03ZM405.64,139.05h17.72c-.13-2.65-.99-4.69-2.57-6.12-1.58-1.43-3.61-2.14-6.09-2.14s-4.48.71-6.09,2.14c-1.61,1.43-2.6,3.47-2.97,6.12Z"/>
    </g>
  </g>
  <g class="st0">
    <g class="st0">
      <path d="M481.29,321.04c-2.52,0-4.77-.45-6.75-1.33s-3.54-2.25-4.68-4.08c-1.14-1.83-1.71-4.15-1.71-6.97v-.96h3.22v.96c0,3.26.93,5.66,2.79,7.22s4.24,2.34,7.12,2.34,5.17-.68,6.75-2.04,2.37-3.1,2.37-5.21c0-1.41-.34-2.54-1.03-3.4-.69-.86-1.64-1.54-2.87-2.06-1.23-.52-2.64-.98-4.25-1.38l-3.22-.8c-1.91-.5-3.62-1.13-5.13-1.89-1.51-.76-2.7-1.75-3.57-2.97-.87-1.22-1.31-2.79-1.31-4.71s.5-3.57,1.49-4.98c.99-1.41,2.36-2.49,4.1-3.25,1.74-.75,3.78-1.13,6.09-1.13s4.41.4,6.27,1.21,3.34,1.99,4.43,3.55,1.64,3.52,1.64,5.86v2.37h-3.22v-2.37c0-1.84-.4-3.34-1.21-4.48-.8-1.14-1.9-1.98-3.27-2.52-1.38-.54-2.92-.81-4.63-.81-2.45,0-4.47.56-6.07,1.69-1.59,1.12-2.39,2.74-2.39,4.86,0,1.41.33,2.53.98,3.37.66.84,1.58,1.51,2.77,2.01,1.19.5,2.59.96,4.2,1.36l3.22.81c1.85.44,3.54,1.02,5.08,1.74,1.54.72,2.79,1.71,3.73,2.97.94,1.26,1.41,2.91,1.41,4.96s-.51,3.83-1.54,5.34c-1.02,1.51-2.46,2.68-4.3,3.5-1.85.82-4.01,1.23-6.49,1.23Z"/>
      <path d="M500.87,330.4v-34.53h2.92v4.48h.6c.71-1.34,1.8-2.54,3.3-3.6,1.49-1.06,3.58-1.59,6.27-1.59,2.18,0,4.16.51,5.94,1.54,1.78,1.02,3.2,2.48,4.25,4.35,1.06,1.88,1.59,4.13,1.59,6.75v.6c0,2.58-.52,4.83-1.56,6.72-1.04,1.9-2.45,3.36-4.23,4.38-1.78,1.02-3.78,1.54-5.99,1.54-1.78,0-3.3-.24-4.56-.73-1.26-.49-2.28-1.12-3.07-1.89-.79-.77-1.4-1.56-1.84-2.37h-.6v14.35h-3.02ZM513.25,318.32c2.79,0,5.04-.89,6.77-2.67,1.73-1.78,2.59-4.23,2.59-7.35v-.4c0-3.12-.86-5.57-2.59-7.35-1.73-1.78-3.99-2.67-6.77-2.67s-5,.89-6.75,2.67c-1.75,1.78-2.62,4.23-2.62,7.35v.4c0,3.12.87,5.57,2.62,7.35,1.75,1.78,3.99,2.67,6.75,2.67Z"/>
      <path d="M544.67,321.04c-2.52,0-4.71-.53-6.57-1.59-1.86-1.06-3.31-2.54-4.35-4.46-1.04-1.91-1.56-4.11-1.56-6.59v-.6c0-2.52.52-4.72,1.56-6.62,1.04-1.9,2.47-3.37,4.3-4.43,1.83-1.06,3.92-1.59,6.27-1.59s4.3.48,6.07,1.43c1.76.96,3.15,2.33,4.15,4.13,1.01,1.8,1.51,3.94,1.51,6.42v1.61h-20.84c.1,3.05,1.03,5.41,2.79,7.07,1.76,1.66,3.98,2.49,6.67,2.49,2.28,0,4.05-.52,5.31-1.56,1.26-1.04,2.22-2.32,2.89-3.83l2.72,1.21c-.5,1.11-1.2,2.19-2.09,3.25-.89,1.06-2.04,1.93-3.45,2.62-1.41.69-3.21,1.03-5.39,1.03ZM535.25,306.13h17.72c-.13-2.65-.99-4.69-2.57-6.12-1.58-1.43-3.61-2.14-6.09-2.14s-4.48.71-6.09,2.14c-1.61,1.43-2.6,3.47-2.97,6.12Z"/>
      <path d="M574.77,321.04c-2.52,0-4.71-.53-6.57-1.59-1.86-1.06-3.31-2.54-4.35-4.46s-1.56-4.11-1.56-6.59v-.6c0-2.52.52-4.72,1.56-6.62,1.04-1.9,2.47-3.37,4.3-4.43,1.83-1.06,3.92-1.59,6.27-1.59s4.3.48,6.07,1.43,3.15,2.33,4.15,4.13c1.01,1.8,1.51,3.94,1.51,6.42v1.61h-20.84c.1,3.05,1.03,5.41,2.79,7.07,1.76,1.66,3.99,2.49,6.67,2.49,2.28,0,4.05-.52,5.31-1.56,1.26-1.04,2.22-2.32,2.89-3.83l2.72,1.21c-.5,1.11-1.2,2.19-2.09,3.25-.89,1.06-2.04,1.93-3.45,2.62s-3.21,1.03-5.39,1.03ZM565.35,306.13h17.72c-.13-2.65-.99-4.69-2.57-6.12-1.58-1.43-3.61-2.14-6.09-2.14s-4.48.71-6.09,2.14c-1.61,1.43-2.6,3.47-2.97,6.12Z"/>
      <path d="M604.17,321.04c-2.18,0-4.16-.51-5.94-1.54-1.78-1.02-3.2-2.48-4.25-4.38-1.06-1.9-1.59-4.14-1.59-6.72v-.6c0-2.58.52-4.82,1.56-6.72,1.04-1.9,2.46-3.36,4.25-4.38,1.79-1.02,3.78-1.54,5.97-1.54,1.81,0,3.34.24,4.58.73,1.24.49,2.26,1.11,3.05,1.86.79.75,1.4,1.55,1.84,2.39h.6v-15.05h3.02v35.24h-2.92v-4.48h-.6c-.71,1.34-1.8,2.54-3.3,3.6-1.49,1.06-3.58,1.59-6.27,1.59ZM604.87,318.32c2.79,0,5.04-.89,6.77-2.67,1.73-1.78,2.59-4.23,2.59-7.35v-.4c0-3.12-.86-5.57-2.59-7.35-1.73-1.78-3.99-2.67-6.77-2.67s-5,.89-6.75,2.67c-1.75,1.78-2.62,4.23-2.62,7.35v.4c0,3.12.87,5.57,2.62,7.35,1.74,1.78,3.99,2.67,6.75,2.67Z"/>
    </g>
  </g>
  <g>
    <path d="M203.78,328.45h-3.78v-15.1h3.78v15.1ZM203.78,298.25h-3.78v-15.1h3.78v15.1ZM203.78,268.05h-3.78v-15.1h3.78v15.1ZM203.78,237.85h-3.78v-15.1h3.78v15.1ZM203.78,207.65h-3.78v-15.1h3.78v15.1ZM203.78,177.45h-3.78v-15.1h3.78v15.1ZM203.78,147.25h-3.78v-15.1h3.78v15.1ZM203.78,117.05h-3.78v-15.1h3.78v15.1ZM203.78,86.85h-3.78v-9.82h3.78v9.82Z"/>
    <polygon points="201.89 50.37 217.24 87.94 201.89 79.02 186.55 87.94 201.89 50.37"/>
  </g>
  <g>
    <path d="M676.55,376.12h-15.1v-3.78h15.1v3.78ZM646.35,376.12h-15.1v-3.78h15.1v3.78ZM616.15,376.12h-15.1v-3.78h15.1v3.78ZM585.95,376.12h-15.1v-3.78h15.1v3.78ZM555.75,376.12h-15.1v-3.78h15.1v3.78ZM525.55,376.12h-15.1v-3.78h15.1v3.78ZM495.35,376.12h-15.1v-3.78h15.1v3.78ZM465.15,376.12h-15.1v-3.78h15.1v3.78ZM434.95,376.12h-15.1v-3.78h15.1v3.78ZM404.75,376.12h-15.1v-3.78h15.1v3.78ZM374.55,376.12h-15.1v-3.78h15.1v3.78ZM344.35,376.12h-15.1v-3.78h15.1v3.78ZM314.15,376.12h-15.1v-3.78h15.1v3.78ZM283.95,376.12h-15.1v-3.78h15.1v3.78Z"/>
    <polygon points="712.24 374.23 674.68 389.58 683.59 374.23 674.68 358.88 712.24 374.23"/>
  </g>
</svg>