<?xml version="1.0" encoding="UTF-8"?>
<svg id="medium" xmlns="http://www.w3.org/2000/svg" viewBox="0 0 766.63 600.52">
  <g>
    <path d="M257.24,135.22v-31.5h3.78v28.08h15.93v3.42h-19.71Z"/>
    <path d="M288.69,135.85c-1.53,0-2.92-.27-4.18-.81s-2.25-1.32-2.97-2.34c-.72-1.02-1.08-2.26-1.08-3.73s.36-2.74,1.08-3.71c.72-.97,1.71-1.71,2.97-2.21,1.26-.5,2.67-.74,4.23-.74h7.42v-1.62c0-1.56-.46-2.79-1.37-3.69-.92-.9-2.27-1.35-4.07-1.35s-3.15.43-4.14,1.28-1.67,2-2.03,3.44l-3.33-1.08c.36-1.23.93-2.35,1.71-3.35.78-1,1.82-1.81,3.13-2.43,1.3-.61,2.87-.92,4.7-.92,2.82,0,5.01.73,6.57,2.18,1.56,1.46,2.34,3.5,2.34,6.14v9.94c0,.9.42,1.35,1.26,1.35h2.03v3.02h-3.1c-.99,0-1.79-.28-2.39-.83-.6-.55-.9-1.3-.9-2.23v-.23h-.54c-.33.57-.77,1.16-1.33,1.78-.56.62-1.31,1.12-2.27,1.53-.96.41-2.2.61-3.73.61ZM289.1,132.79c2.1,0,3.8-.62,5.11-1.87,1.3-1.24,1.96-2.99,1.96-5.24v-.5h-7.29c-1.41,0-2.57.31-3.49.92-.92.62-1.37,1.54-1.37,2.77s.47,2.19,1.42,2.88c.94.69,2.17,1.03,3.67,1.03Z"/>
    <path d="M316.23,135.63c-1.59,0-3.05-.35-4.39-1.03-1.34-.69-2.39-1.72-3.15-3.08-.77-1.36-1.15-3.02-1.15-4.97v-13.32h3.56v13.05c0,2.19.55,3.78,1.64,4.77,1.09.99,2.57,1.48,4.43,1.48,2.1,0,3.83-.69,5.18-2.07,1.35-1.38,2.03-3.43,2.03-6.17v-11.07h3.55v22h-3.46v-3.73h-.63c-.48,1.05-1.31,2-2.47,2.86-1.17.85-2.88,1.28-5.13,1.28Z"/>
    <path d="M343.46,135.22c-1.26,0-2.23-.34-2.9-1.04-.68-.69-1.01-1.63-1.01-2.83v-15.03h-6.61v-3.1h6.61v-7.83h3.56v7.83h7.2v3.1h-7.2v14.49c0,.9.43,1.35,1.3,1.35h4.91v3.06h-5.85Z"/>
    <path d="M364.92,135.85c-2.73,0-5.03-.63-6.91-1.89-1.88-1.26-3.01-3.25-3.4-5.99l3.38-.76c.24,1.44.69,2.57,1.35,3.4.66.83,1.48,1.41,2.45,1.75.97.35,2.02.52,3.13.52,1.65,0,2.95-.33,3.91-.99.96-.66,1.44-1.54,1.44-2.65s-.46-1.94-1.37-2.41c-.92-.46-2.17-.85-3.76-1.15l-1.84-.31c-1.41-.24-2.7-.61-3.87-1.12-1.17-.51-2.1-1.2-2.79-2.07-.69-.87-1.04-1.96-1.04-3.29,0-1.98.77-3.52,2.3-4.64,1.53-1.11,3.55-1.66,6.07-1.66s4.51.56,6.05,1.69c1.54,1.12,2.54,2.71,2.99,4.75l-3.33.85c-.27-1.59-.92-2.71-1.94-3.35-1.02-.65-2.28-.97-3.78-.97s-2.69.28-3.55.83c-.87.56-1.31,1.37-1.31,2.45s.41,1.82,1.24,2.32c.82.5,1.93.86,3.31,1.1l1.84.31c1.56.27,2.96.64,4.21,1.1,1.24.47,2.23,1.13,2.97,2,.73.87,1.1,2.01,1.1,3.42,0,2.16-.8,3.83-2.41,5-1.61,1.17-3.76,1.75-6.46,1.75Z"/>
    <path d="M387.87,135.22c-1.26,0-2.23-.34-2.9-1.04-.68-.69-1.01-1.63-1.01-2.83v-15.03h-6.61v-3.1h6.61v-7.83h3.56v7.83h7.2v3.1h-7.2v14.49c0,.9.43,1.35,1.3,1.35h4.91v3.06h-5.85Z"/>
    <path d="M407.22,135.85c-1.53,0-2.93-.27-4.19-.81s-2.25-1.32-2.97-2.34c-.72-1.02-1.08-2.26-1.08-3.73s.36-2.74,1.08-3.71c.72-.97,1.71-1.71,2.97-2.21,1.26-.5,2.67-.74,4.23-.74h7.43v-1.62c0-1.56-.46-2.79-1.37-3.69-.92-.9-2.27-1.35-4.07-1.35s-3.15.43-4.14,1.28c-.99.85-1.67,2-2.03,3.44l-3.33-1.08c.36-1.23.93-2.35,1.71-3.35.78-1,1.82-1.81,3.13-2.43,1.3-.61,2.87-.92,4.7-.92,2.82,0,5.01.73,6.57,2.18,1.56,1.46,2.34,3.5,2.34,6.14v9.94c0,.9.42,1.35,1.26,1.35h2.02v3.02h-3.1c-.99,0-1.79-.28-2.39-.83-.6-.55-.9-1.3-.9-2.23v-.23h-.54c-.33.57-.77,1.16-1.33,1.78-.56.62-1.31,1.12-2.27,1.53-.96.41-2.21.61-3.73.61ZM405.2,109.84c-.78,0-1.43-.25-1.94-.74-.51-.5-.76-1.15-.76-1.96s.25-1.45.76-1.94c.51-.48,1.15-.72,1.94-.72s1.42.24,1.94.72c.51.48.76,1.12.76,1.94s-.26,1.46-.76,1.96c-.51.5-1.16.74-1.94.74ZM407.63,132.79c2.1,0,3.8-.62,5.11-1.87,1.3-1.24,1.96-2.99,1.96-5.24v-.5h-7.29c-1.41,0-2.57.31-3.49.92-.92.62-1.37,1.54-1.37,2.77s.47,2.19,1.42,2.88c.95.69,2.17,1.03,3.67,1.03ZM413.61,109.84c-.75,0-1.38-.25-1.89-.74-.51-.5-.77-1.15-.77-1.96s.25-1.45.77-1.94c.51-.48,1.14-.72,1.89-.72.81,0,1.46.24,1.96.72.49.48.74,1.12.74,1.94s-.25,1.46-.74,1.96c-.5.5-1.15.74-1.96.74Z"/>
    <path d="M426.35,135.22v-22h3.46v2.7h.63c.39-.96.99-1.67,1.8-2.11.81-.45,1.87-.68,3.2-.68h2.61v3.24h-2.83c-1.59,0-2.87.44-3.85,1.33-.98.89-1.46,2.26-1.46,4.12v13.41h-3.55Z"/>
    <path d="M443.31,135.22v-31.5h3.55v18.54h.63l10.08-9.04h4.95l-12.2,10.71,12.56,11.29h-4.91l-10.49-9.58h-.63v9.58h-3.55Z"/>
    <path d="M477.6,135.85c-2.22,0-4.17-.47-5.85-1.42-1.68-.94-2.99-2.27-3.92-3.98-.93-1.71-1.4-3.69-1.4-5.94v-.54c0-2.28.46-4.27,1.4-5.98.93-1.71,2.22-3.04,3.87-3.98,1.65-.95,3.54-1.42,5.67-1.42s3.9.44,5.49,1.33c1.59.89,2.83,2.15,3.73,3.8.9,1.65,1.35,3.58,1.35,5.8v1.62h-17.96c.09,2.37.85,4.22,2.29,5.56,1.44,1.33,3.24,2,5.4,2,1.89,0,3.34-.43,4.36-1.31,1.02-.87,1.8-1.9,2.34-3.1l3.06,1.49c-.45.93-1.07,1.86-1.87,2.79-.8.93-1.83,1.71-3.1,2.34-1.28.63-2.9.94-4.88.94ZM470.04,122.22h14.31c-.12-2.04-.82-3.63-2.09-4.77-1.28-1.14-2.9-1.71-4.88-1.71s-3.66.57-4.95,1.71c-1.29,1.14-2.09,2.73-2.39,4.77Z"/>
  </g>
  <g>
    <path d="M541.84,311.62v-28.08h-10.12v-3.42h24.03v3.42h-10.12v28.08h-3.78Z"/>
    <path d="M570.78,312.25c-2.22,0-4.17-.47-5.85-1.42-1.68-.94-2.99-2.27-3.92-3.98-.93-1.71-1.4-3.69-1.4-5.94v-.54c0-2.28.46-4.27,1.4-5.98.93-1.71,2.22-3.04,3.87-3.98,1.65-.95,3.54-1.42,5.67-1.42s3.9.44,5.49,1.33c1.59.89,2.83,2.15,3.73,3.8.9,1.65,1.35,3.58,1.35,5.8v1.62h-17.96c.09,2.37.85,4.22,2.29,5.56,1.44,1.33,3.24,2,5.4,2,1.89,0,3.34-.43,4.36-1.31,1.02-.87,1.8-1.9,2.34-3.1l3.06,1.49c-.45.93-1.07,1.86-1.87,2.79-.8.93-1.83,1.71-3.1,2.34-1.28.63-2.9.94-4.88.94ZM563.22,298.61h14.31c-.12-2.04-.82-3.63-2.09-4.77-1.28-1.14-2.9-1.71-4.88-1.71s-3.66.57-4.95,1.71c-1.29,1.14-2.09,2.73-2.39,4.77Z"/>
    <path d="M587.34,311.62v-22h3.46v2.75h.63c.42-.78,1.11-1.5,2.07-2.16.96-.66,2.31-.99,4.05-.99s3.1.38,4.16,1.12c1.06.75,1.84,1.67,2.32,2.75h.63c.51-1.08,1.28-1.99,2.32-2.75,1.04-.75,2.48-1.12,4.34-1.12,1.47,0,2.76.3,3.87.9,1.11.6,1.99,1.46,2.63,2.59.64,1.12.97,2.47.97,4.03v14.9h-3.55v-14.58c0-1.47-.43-2.63-1.28-3.49s-2.05-1.28-3.58-1.28c-1.62,0-2.95.53-3.98,1.58-1.03,1.05-1.55,2.56-1.55,4.54v13.23h-3.55v-14.58c0-1.47-.43-2.63-1.28-3.49s-2.05-1.28-3.58-1.28c-1.62,0-2.95.53-3.98,1.58-1.03,1.05-1.55,2.56-1.55,4.54v13.23h-3.55Z"/>
    <path d="M626.04,320.62v-31h3.46v3.65h.63c.57-1.11,1.49-2.1,2.77-2.97,1.27-.87,3.05-1.3,5.33-1.3,1.89,0,3.62.46,5.2,1.37,1.57.92,2.83,2.21,3.78,3.89.95,1.68,1.42,3.71,1.42,6.08v.58c0,2.34-.47,4.36-1.4,6.08-.93,1.71-2.18,3.01-3.76,3.91-1.58.9-3.32,1.35-5.24,1.35-1.53,0-2.83-.2-3.89-.61-1.07-.4-1.93-.92-2.59-1.55-.66-.63-1.17-1.27-1.53-1.94h-.63v12.46h-3.55ZM637.29,309.1c2.28,0,4.13-.73,5.56-2.18,1.42-1.45,2.14-3.49,2.14-6.1v-.41c0-2.61-.71-4.64-2.14-6.1-1.43-1.45-3.28-2.18-5.56-2.18s-4.1.73-5.56,2.18c-1.46,1.46-2.18,3.49-2.18,6.1v.41c0,2.61.73,4.64,2.18,6.1,1.45,1.46,3.31,2.18,5.56,2.18Z"/>
    <path d="M665.19,312.25c-2.22,0-4.18-.47-5.87-1.4-1.7-.93-3.01-2.24-3.96-3.94-.95-1.69-1.42-3.7-1.42-6.01v-.58c0-2.28.47-4.27,1.42-5.98.95-1.71,2.26-3.03,3.96-3.96,1.69-.93,3.65-1.39,5.87-1.39s4.18.47,5.87,1.39c1.69.93,3.01,2.25,3.96,3.96.95,1.71,1.42,3.71,1.42,5.98v.58c0,2.31-.47,4.31-1.42,6.01-.95,1.7-2.27,3.01-3.96,3.94-1.7.93-3.65,1.4-5.87,1.4ZM665.19,309.05c2.34,0,4.21-.74,5.6-2.23s2.09-3.49,2.09-6.01v-.41c0-2.52-.7-4.52-2.09-6.01s-3.26-2.23-5.6-2.23-4.17.74-5.58,2.23c-1.41,1.48-2.11,3.49-2.11,6.01v.41c0,2.52.7,4.52,2.11,6.01,1.41,1.48,3.27,2.23,5.58,2.23Z"/>
  </g>
  <g>
    <path d="M203.89,325.9h-3.99v-15.94h3.99v15.94ZM203.89,294.01h-3.99v-15.94h3.99v15.94ZM203.89,262.12h-3.99v-15.94h3.99v15.94ZM203.89,230.23h-3.99v-15.94h3.99v15.94ZM203.89,198.34h-3.99v-15.94h3.99v15.94ZM203.89,166.45h-3.99v-15.94h3.99v15.94ZM203.89,134.56h-3.99v-15.94h3.99v15.94ZM203.89,102.68h-3.99v-15.94h3.99v15.94ZM203.89,70.79h-3.99v-10.33h3.99v10.33Z"/>
    <polygon points="201.89 32.31 218.1 71.97 201.89 62.56 185.69 71.97 201.89 32.31"/>
  </g>
  <g>
    <path d="M703.08,376.22h-15.94v-3.99h15.94v3.99ZM671.2,376.22h-15.94v-3.99h15.94v3.99ZM639.31,376.22h-15.94v-3.99h15.94v3.99ZM607.42,376.22h-15.94v-3.99h15.94v3.99ZM575.53,376.22h-15.94v-3.99h15.94v3.99ZM543.64,376.22h-15.94v-3.99h15.94v3.99ZM511.75,376.22h-15.94v-3.99h15.94v3.99ZM479.86,376.22h-15.94v-3.99h15.94v3.99ZM447.97,376.22h-15.94v-3.99h15.94v3.99ZM416.08,376.22h-15.94v-3.99h15.94v3.99ZM384.19,376.22h-15.94v-3.99h15.94v3.99ZM352.31,376.22h-15.94v-3.99h15.94v3.99ZM320.42,376.22h-15.94v-3.99h15.94v3.99ZM288.53,376.22h-15.94v-3.99h15.94v3.99Z"/>
    <polygon points="740.7 374.23 701.04 390.43 710.45 374.23 701.04 358.03 740.7 374.23"/>
  </g>
</svg>